<?xml version="1.0" encoding="UTF-8" standalone="no"?>
<!-- Created with Inkscape (http://www.inkscape.org/) -->

<svg
   xmlns:dc="http://purl.org/dc/elements/1.1/"
   xmlns:cc="http://creativecommons.org/ns#"
   xmlns:rdf="http://www.w3.org/1999/02/22-rdf-syntax-ns#"
   xmlns:svg="http://www.w3.org/2000/svg"
   xmlns="http://www.w3.org/2000/svg"
   xmlns:sodipodi="http://sodipodi.sourceforge.net/DTD/sodipodi-0.dtd"
   xmlns:inkscape="http://www.inkscape.org/namespaces/inkscape"
   width="210mm"
   height="297mm"
   viewBox="0 0 210 297"
   version="1.1"
   id="svg617"
   inkscape:version="0.92.4 (unknown)"
   sodipodi:docname="info.svg">
  <defs
     id="defs611" />
  <sodipodi:namedview
     id="base"
     pagecolor="#ffffff"
     bordercolor="#666666"
     borderopacity="1.0"
     inkscape:pageopacity="0.0"
     inkscape:pageshadow="2"
     inkscape:zoom="0.35"
     inkscape:cx="-72.857143"
     inkscape:cy="719.24736"
     inkscape:document-units="mm"
     inkscape:current-layer="layer1"
     showgrid="false"
     inkscape:window-width="1920"
     inkscape:window-height="1030"
     inkscape:window-x="0"
     inkscape:window-y="0"
     inkscape:window-maximized="1" />
  <metadata
     id="metadata614">
    <rdf:RDF>
      <cc:Work
         rdf:about="">
        <dc:format>image/svg+xml</dc:format>
        <dc:type
           rdf:resource="http://purl.org/dc/dcmitype/StillImage" />
        <dc:title></dc:title>
      </cc:Work>
    </rdf:RDF>
  </metadata>
  <g
     inkscape:label="Ebene 1"
     inkscape:groupmode="layer"
     id="layer1">
    <path
       style="fill:#000000;fill-opacity:1;fill-rule:nonzero;stroke:none;stroke-width:0.12063462"
       d="m 118.60869,154.09721 13.17087,0.60129 -9.06977,9.29216 1.98437,8.35819 -10.31993,6.9525 6.1962,-16.6471 -5.70423,-3.00834 z m -19.400021,-3.58795 17.862881,3.74438 0.66913,-0.1343 -1.17947,1.73414 z m -8.589547,-5.88329 29.371688,4.45735 39.46496,2.78496 -1.31333,2.65209 -8.6018,-0.46699 0.5339,-1.69501 -22.24058,-1.89387 -0.80251,2.02817 -6.23955,0.24504 -2.67329,0.0895 0.0881,-2.40753 z m -1.98294,-1.18184 0.09,3.88764 2.695902,1.72894 -6.777215,-0.64747 z m -40.291491,-9.3374 8.20033,2.71992 13.661402,2.11678 -14.507732,1.00277 z m 1.29211,-3.83299 6.08451,2.07342 11.98806,4.38901 -11.20818,-1.60357 z m 40.825876,-2.874 1.068746,5.21462 3.723631,2.36177 -9.806275,0.62486 -10.785946,3.11955 11.721823,-6.99822 z m 56.225143,-22.50779 33.42898,9.78317 -32.96105,-7.24372 -25.73805,39.15443 z m -16.44589,-19.521596 10.42924,6.86391 2.20535,8.355836 -7.46427,8.8921 1.51406,-10.830746 z m -10.20775,-3.32076 3.25476,4.10111 -3.11955,0.80156 -1.82648,-2.76328 -1.67379,3.20859 0.09,2.80757 -2.60636,7.42046 4.94601,1.27184 2.74162,-2.54039 9.20405,2.89616 c -5.65995,6.471386 -16.99959,19.410396 -17.33888,19.767126 l -0.31195,-11.54323 3.25478,3.40887 2.18461,-9.18143 -15.2876,4.99219 -1.36043,-11.186976 3.18738,-10.9424 6.95252,9.96179 -0.51318,-5.59397 1.93863,-5.66039 z m 18.40949,-19.05414 7.30924,4.96911 -1.49239,2.00601 -6.66458,-2.31656 -1.89387,-2.89805 -2.13985,4.25707 5.57182,3.49794 -0.3803,1.82742 -3.2086,-0.33316 -1.44856,3.67701 0.95802,3.92156 -5.7933,-1.53761 3.16384,-7.37567 -2.85281,-1.60455 6.2188,-8.02312 z m -60.327197,-0.44531 11.566783,0.0222 6.283838,11.031 1.69406,10.47447 1.158759,16.089636 4.345187,17.76062 17.4501,9.31479 10.31756,-19.20966 -6.15049,17.69559 9.42647,-13.59496 -8.91472,19.18796 5.0808,-4.39087 -11.20819,18.54142 -11.36651,-1.20208 -15.264994,-1.87267 26.273834,1.91602 2.31704,-2.67375 0.80251,-4.96912 -17.09243,-9.67244 -9.761025,-22.17415 1.73883,18.98769 6.731515,7.08633 -9.227617,-3.6096 -5.726367,-29.283116 3.120001,-0.77894 -2.830188,-13.59542 -0.735122,-13.66047 z m 14.418653,-2.04985 9.827014,0.7125 -2.20535,10.85287 0.7125,6.15096 -5.882356,-10.33973 z m 42.608524,-15.22117 9.24928,4.50071 5.34752,6.15189 -0.19981,7.30877 -2.62994,1.04707 -9.35906,-6.92943 -7.64286,6.01664 -3.25527,-5.66134 7.93269,-7.08633 5.08173,0.82512 z m -0.44484,-2.56302 -6.97466,1.24829 -7.55476,5.83899 -7.55519,5.45919 -8.00005,2.34108 -9.426482,1.31378 -8.446295,-0.8237 -10.050374,0.24456 -10.072518,6.64103 -11.85565,14.35221 -11.47725,15.39789 -2.71852,15.844586 -5.7947,18.05138 -1.80434,35.09714 8.60275,9.29404 5.01435,1.29212 -26.94393,1.78407 1.37787,75.0385 0.55888,-5.15338 -0.88873,-68.81591 34.33656,-2.01309 0.80628,50.4837 0.80392,-1.5852 0.24268,-48.26799 22.998802,2.43013 -18.740302,-3.23169 11.408918,-2.13937 14.306512,0.22382 2.317492,7.30829 -9.93915,19.38871 0.468402,-19.61067 -8.424633,24.40213 -14.752291,27.94482 -1.58192,20.36981 -0.80062,-75.92534 -31.08839,1.87925 -0.13288,6.66412 27.45333,0.48065 -27.36474,0.84729 -0.20027,8.20549 26.38364,0.99854 -26.66968,0.30253 -0.11686,5.22312 17.78371,1.51641 -1.64176,-4.30469 12.82921,-0.17435 1.33734,-20.30244 0.35578,23.19861 -11.19828,-0.60835 0.10178,3.86265 -20.23599,-0.3341 0.71344,47.06589 33.71785,4.39091 20.903246,-16.33609 3.698683,3.11998 17.358649,6.863 -6.505306,-6.81775 -8.82612,-2.20723 L 73.1483,221.13 l 5.548255,-2.98525 0.11168,-0.0452 v -0.0222 l 1.916502,-1.0254 c 1.149781,-2.49612 2.923958,-3.75664 3.208582,-7.95435 0.04526,-0.6866 0.06692,-1.44997 0.02263,-2.29724 l 12.367844,-8.4237 -9.113559,12.18976 -2.787791,13.03795 5.2608,-12.05684 7.754072,-11.07577 18.140425,-15.59958 -17.048591,16.95859 -7.330896,12.83771 -4.279247,9.91559 2.719456,10.09561 7.532133,6.10665 -0.289325,-10.8755 -5.459197,-6.84083 4.90172,-0.15831 6.306927,-12.79011 17.51558,-12.41265 -10.74119,4.16614 2.98476,-5.68161 12.77031,-7.04206 -9.04854,2.00651 12.59219,-12.97058 6.41861,3.34243 5.90591,-1.93864 -11.87779,14.37391 -4.07944,4.65715 -10.60643,8.35725 -6.15237,6.12832 -5.3244,9.98346 -2.98713,6.03975 2.3849,10.09467 1.18089,4.52474 0.13288,4.54454 -3.943233,-3.38675 -0.200277,5.61563 7.48642,2.47396 1.91789,-4.85743 -4.4352,-7.93359 -2.71851,-9.38266 2.27368,-6.01665 8.77899,-12.16711 13.01439,-11.23175 8.157,-8.64706 6.41717,-8.93687 2.74209,-1.82691 5.94833,-12.45696 2.16295,-10.56402 -5.81639,7.66596 -7.75596,-4.12232 0.51317,-4.9903 -4.30138,6.83989 -1.24829,5.6604 -4.85836,1.8717 4.74763,-17.15932 26.38504,1.22566 27.76718,-40.53605 -41.60576,-12.90273 -0.98062,1.62669 0.44579,-9.137596 -6.28526,-11.02959 5.70611,-8.93686 3.45505,-2.18414 0.93493,-3.89988 4.16707,-1.51549 -0.20075,-6.66269 -2.3175,-7.64382 -2.91785,-4.12419 -3.23262,-2.719 -3.56579,-1.982 z m 0,0"
       id="path1086"
       inkscape:connector-curvature="0" />
  </g>
</svg>
