<?xml version="1.0" encoding="UTF-8" standalone="no"?>
<!-- Created with Inkscape (http://www.inkscape.org/) -->

<svg
   width="210mm"
   height="297mm"
   viewBox="0 0 210 297"
   version="1.1"
   id="svg617"
   inkscape:version="1.4.3 (0d15f75042, 2025-12-25)"
   sodipodi:docname="vereins-denker.svg"
   xmlns:inkscape="http://www.inkscape.org/namespaces/inkscape"
   xmlns:sodipodi="http://sodipodi.sourceforge.net/DTD/sodipodi-0.dtd"
   xmlns="http://www.w3.org/2000/svg"
   xmlns:svg="http://www.w3.org/2000/svg"
   xmlns:rdf="http://www.w3.org/1999/02/22-rdf-syntax-ns#"
   xmlns:cc="http://creativecommons.org/ns#"
   xmlns:dc="http://purl.org/dc/elements/1.1/">
  <defs
     id="defs611" />
  <sodipodi:namedview
     id="base"
     pagecolor="#ffffff"
     bordercolor="#666666"
     borderopacity="1.0"
     inkscape:pageopacity="0.0"
     inkscape:pageshadow="2"
     inkscape:zoom="0.62147622"
     inkscape:cx="259.86513"
     inkscape:cy="566.39336"
     inkscape:document-units="mm"
     inkscape:current-layer="layer1"
     showgrid="false"
     inkscape:window-width="1898"
     inkscape:window-height="1007"
     inkscape:window-x="0"
     inkscape:window-y="0"
     inkscape:window-maximized="1"
     inkscape:showpageshadow="2"
     inkscape:pagecheckerboard="0"
     inkscape:deskcolor="#d1d1d1" />
  <metadata
     id="metadata614">
    <rdf:RDF>
      <cc:Work
         rdf:about="">
        <dc:format>image/svg+xml</dc:format>
        <dc:type
           rdf:resource="http://purl.org/dc/dcmitype/StillImage" />
      </cc:Work>
    </rdf:RDF>
  </metadata>
  <g
     inkscape:label="Ebene 1"
     inkscape:groupmode="layer"
     id="layer1">
    <path
       id="path1086"
       style="fill:#000000;fill-opacity:1;fill-rule:nonzero;stroke:none;stroke-width:0.120635"
       inkscape:label="denker"
       d="m 144.71333,42.716256 -6.97476,1.247986 -7.55458,5.83892 -7.5551,5.459615 -8.00002,2.340942 -9.42681,1.313615 -8.446001,-0.823722 -10.050549,0.244429 -10.072253,6.641455 -11.855607,14.352096 -11.477336,15.398026 -2.718697,15.844512 -5.794478,18.05109 -1.804541,35.09709 8.602575,9.294 5.014681,1.29243 -43.348258,0.72554 1.377694,75.03883 0.559139,-5.15369 -0.888835,-68.81596 50.740572,-0.95446 0.806669,50.48374 0.803568,-1.58543 0.24288,-48.26786 22.998596,2.42983 -18.739941,-3.23133 11.408605,-2.1394 14.306621,0.22375 2.317688,7.30809 -9.939445,19.38899 0.468705,-19.61069 -8.424809,24.40213 -14.752071,27.94455 -1.582332,20.36982 -0.800468,-75.92509 -47.71285,1.31982 0.299207,9.49865 4.499466,0.0475 -0.571024,14.26889 -1.055233,-0.0723 0.567924,-13.66945 -4.987809,-0.0507 0.136426,13.51029 1.856734,0.12247 0.12299,3.90157 -0.286804,22.9154 3.565157,0.0372 0.286804,12.83694 -0.530717,-0.0574 -0.285254,-12.25196 -4.48293,-0.045 0.179834,11.87937 1.110009,0.11473 -0.05064,4.06952 -0.756026,5.08651 22.229134,2.4169 -19.058268,-5.18986 0.02429,-0.43925 38.128939,10.38283 0.804085,-70.1089 -13.613639,3.68918 -12.371338,11.41326 -1.062468,1.82728 2.220537,0.15141 1.214396,0.0832 2.300635,0.15658 5.627046,1.89239 1.946651,2.56211 -0.286804,6.8647 -3.996655,3.07423 1.410767,14.42961 -9.403044,-1.93528 1.728577,-14.14694 -3.680396,-4.03076 -0.175183,-7.22178 -9.424231,16.20469 2.030884,-36.70163 -3.729488,-2.98793 2.018481,-1.9234 39.375891,3.78271 -0.808736,70.47839 6.671944,0.72554 20.903117,-16.33596 3.698999,3.11971 17.358636,6.86315 -6.50555,-6.81768 -8.825819,-2.2071 -9.64799,-19.34352 5.547981,-2.98535 0.111622,-0.0455 v -0.0222 l 1.916678,-1.02526 c 1.149781,-2.49612 2.923966,-3.75633 3.20859,-7.95404 0.04526,-0.6866 0.06703,-1.45026 0.02274,-2.29753 l 12.36772,-8.42378 -9.113655,12.18996 -2.787944,13.03796 5.261178,-12.05715 7.754051,-11.07529 18.14049,-15.59956 -17.04857,16.95813 -7.33133,12.83798 -4.278814,9.91567 2.719214,10.09551 7.53236,6.10661 -0.28939,-10.87531 -5.4591,-6.84093 4.90151,-0.15864 6.3071,-12.78992 17.51521,-12.41268 -10.74094,4.16616 2.98483,-5.68131 12.77028,-7.04246 -9.04854,2.00659 12.59199,-12.97027 6.41873,3.34243 5.9061,-1.93889 -11.87783,14.37379 -4.07985,4.65708 -10.60607,8.35763 -6.1526,6.12831 -5.32422,9.98337 -2.98742,6.03943 2.38487,10.09499 1.18133,4.52479 0.1328,4.54442 -3.94342,-3.38687 -0.19999,5.61568 7.48636,2.47426 1.91771,-4.85758 -4.43538,-7.93388 -2.71818,-9.38238 2.27376,-6.01668 8.77879,-12.16722 13.01419,-11.23187 8.15713,-8.64702 6.41718,-8.93692 2.74195,-1.82676 5.94847,-12.45712 2.16318,-10.5637 -5.8167,7.66568 -7.75612,-4.12223 0.51367,-4.99039 -4.30155,6.83989 -1.2485,5.66064 -4.8581,1.87172 4.74751,-17.15968 26.38495,1.22577 27.7673,-40.53603 -41.60573,-12.90257 -0.98082,1.62677 0.44597,-9.13794 -6.2854,-11.029301 5.70611,-8.936923 3.45508,-2.184362 0.93483,-3.899504 4.16719,-1.51567 -0.20051,-6.662642 -2.31768,-7.643978 -2.91765,-4.124296 -3.23288,-2.718697 -3.56568,-1.982308 z m 0.44494,2.562634 9.24905,4.501017 5.34747,6.151563 -0.19947,7.309114 -2.62981,1.046965 -9.35912,-6.929293 -7.64294,6.016687 -3.2551,-5.66167 7.93233,-7.086389 5.08186,0.825273 z m -42.60877,15.221293 9.82731,0.712618 -2.20555,10.853084 0.71262,6.150529 -5.88233,-10.33942 z m -14.418237,2.050004 11.566736,0.02222 6.283851,11.030851 1.69396,10.474813 1.15858,16.089458 4.34547,17.76067 17.4501,9.31468 10.3172,-19.20968 -6.15053,17.69556 9.42681,-13.59504 -8.9147,19.18798 5.08083,-4.39095 -11.2081,18.54151 -11.36675,-1.202 -15.26522,-1.87275 26.27385,1.91616 2.31717,-2.67374 0.80253,-4.9692 -17.09249,-9.67228 -9.76116,-22.17436 1.73891,18.98799 6.73189,7.08587 -9.22786,-3.6096 -5.726264,-29.282963 3.119704,-0.778763 -2.8298,-13.595553 -0.735355,-13.660665 z m 60.327067,0.445451 7.30911,4.968689 -1.49241,2.006079 -6.66471,-2.316138 -1.89343,-2.898531 -2.13992,4.257105 5.57175,3.497977 -0.38034,1.827796 -3.20859,-0.333313 -1.44849,3.676778 0.95809,3.921725 -5.79345,-1.537374 3.16363,-7.375778 -2.85254,-1.604553 6.21874,-8.023283 z m -18.40973,19.054134 3.2551,4.101042 -3.11971,0.801501 -1.82625,-2.763139 -1.6738,3.20859 0.0899,2.807581 -2.60656,7.420219 4.94595,1.271757 2.74195,-2.540414 9.20358,2.896464 c -5.65995,6.471387 -16.99919,19.410027 -17.33848,19.766757 l -0.31212,-11.54297 3.25458,3.40858 2.18488,-9.18135 -15.28744,4.99246 -1.36064,-11.186918 3.1874,-10.942484 6.95255,9.961666 -0.51315,-5.593974 1.93838,-5.66012 z m 10.20816,3.320728 10.42882,6.863663 2.20555,8.356077 -7.46414,8.89197 1.51412,-10.830867 z m 16.44551,19.52129 33.42896,9.78338 -32.96077,-7.244 -25.73797,39.15471 z m -56.22499,22.50819 1.06867,5.21415 3.7238,2.36213 -9.806635,0.62477 -10.785905,3.1197 11.722282,-6.99854 z m -40.825932,2.87372 6.084383,2.07326 11.988415,4.3894 -11.208618,-1.60352 z m -1.291911,3.83284 8.200016,2.72025 13.661698,2.11667 -14.507641,1.00252 z m 40.29108,9.33742 0.09043,3.88762 2.695959,1.72909 -6.777363,-0.64751 z m 1.983343,1.18184 29.37133,4.45761 39.46529,2.78484 -1.31361,2.65203 -8.60155,-0.46715 0.53382,-1.69499 -22.2405,-1.89342 -0.80254,2.02778 -6.23941,0.24546 -2.67374,0.0894 0.0884,-2.4076 z m 8.58914,5.88336 17.86299,3.74447 0.66921,-0.13436 -1.17926,1.73427 z m 19.40036,3.58789 13.17077,0.60152 -9.06973,9.29194 1.98438,8.35814 -10.31979,6.95255 6.19601,-16.64705 -5.70405,-3.00808 z m -96.563093,51.25217 0.15968,6.60942 3.680912,4.02973 -1.727543,14.14797 6.103504,1.25522 -1.16272,-12.94856 4.385262,-2.83394 -0.05994,-6.20427 -1.819527,-2.20813 -5.190381,-1.78956 z" />
  </g>
</svg>
